<svg width="20" height="20" viewBox="0 0 20 20" fill="none" xmlns="http://www.w3.org/2000/svg">
<circle cx="10" cy="10" r="9" stroke="#828BA1" stroke-width="2"/>
<path d="M7.48234 14V13.256L10.3743 10.136C10.7823 9.688 11.0743 9.28 11.2503 8.912C11.4343 8.544 11.5263 8.168 11.5263 7.784C11.5263 6.8 10.9543 6.308 9.81034 6.308C8.95434 6.308 8.19834 6.628 7.54234 7.268L7.17034 6.5C7.48234 6.18 7.87834 5.924 8.35834 5.732C8.84634 5.532 9.35834 5.432 9.89434 5.432C10.7423 5.432 11.3903 5.632 11.8383 6.032C12.2943 6.424 12.5223 6.984 12.5223 7.712C12.5223 8.216 12.3983 8.712 12.1503 9.2C11.9023 9.68 11.5223 10.192 11.0103 10.736L8.74234 13.16H12.8703V14H7.48234Z" fill="#828BA1"/>
</svg>
