<svg width="28" height="28" viewBox="0 0 28 28" fill="none" xmlns="http://www.w3.org/2000/svg">
<circle cx="14" cy="14" r="14" fill="#828BA1"/>
<path d="M16.9539 17.544V19H10.3179V17.67L13.6779 14.058C14.0699 13.6287 14.3546 13.2367 14.5319 12.882C14.7186 12.518 14.8119 12.1587 14.8119 11.804C14.8119 11.356 14.6812 11.02 14.4199 10.796C14.1679 10.5627 13.7946 10.446 13.2999 10.446C12.4132 10.446 11.5219 10.7867 10.6259 11.468L10.0239 10.152C10.4159 9.80667 10.9152 9.53133 11.5219 9.326C12.1379 9.11133 12.7539 9.004 13.3699 9.004C14.3592 9.004 15.1432 9.24667 15.7219 9.732C16.3006 10.2173 16.5899 10.8707 16.5899 11.692C16.5899 12.2613 16.4686 12.798 16.2259 13.302C15.9832 13.7967 15.5726 14.352 14.9939 14.968L12.5719 17.544H16.9539Z" fill="white"/>
</svg>
